P1
# Created by GIMP version 2.10.22 PNM plug-in
96 208
0000000000000000000000000000000000000010100000000000000000000010100010
1000000001010100000000000000000000000000000000000000000000000000101000
0000000000000000001010001010010101101010000000000000000000000000000000
0000000000000000000010100000000000000000000010100010100000000101010000
0000000000000000000000010000010000000000000000101000000000000000000000
1010001010010101101010000000000000001110011111001110000100000100000100
0010100000000000000000000010100010100000000101010100000000010100010111
1101010100010000001000100000101011111100111111111000101111101001010110
1010011100000111010001011111000100000100011111011111001010000000001000
0000100010000000100000000101010111110111110100010111110001000101010000
1000100000101011111100101111101000111111111001010110101001110000011100
1110011111000100001110000100000100001010000000001010001010000000000000
0000000101010100000000010000000000000001000001000000000000000010100000
0000101000101000000000000001010110101000000000000000000000000000000000
0000000000000000001010000000001010001010000000000000000000010101000000
0000000000000000000000000000000000000000000010100000000010100010100000
0000000001010110101000000000000000000000000000000000000000000000000000
1010000000001010001010000000000000000000010101000000000000000100000000
0000000000000001000001000001000001000001000000000000000001001111110000
0011111100000000010000000000000000000000010000010000010000010000010000
0000000000000100111111000000111111000000000100000000000000000000000100
0001000001000001000001000000000000000001001111110000001111110000000001
0000000000000000000000010000010000010000010000010000000000000000010011
1111000000111111000000000100000000000000000000000100000100000100000100
0001000000000001000001001111110000001111110000000001000000000000000000
0000010000010000010000010000010000000000111000010011111100000011111111
1111000100111111000111111100000111111100000111111100111111111111011111
1111111111111111111111111111110001000000000001000001000000000000000001
0000010000000000010000111000010011111111111100000011111100010000000000
0100000100000000000000000100000100000000000100000100000100111111111111
0000000000000001000000000001000001000000000000000001000001000000000001
0000000000010011111111111100000000000000010000000000010000010000000000
0000000100000100000000000100000000000100111111111111000000000000000100
0000000001000001000000000000000001000001000000000001000000000001001111
1111111100000000000000010000000000010000010000000000000000010000010000
0000000100000000000100111111111111000000000000000000000000000000000000
0000000000000000000000000000000000000000000000000000000000000000000000
0000000000000000000000000000000000000000000000000000001000100000000000
0000000000000000000000000000000000000000000000000000000100000000000000
0000000001000001000000000000000000000000000000000000010000000001000010
1000101000111001100000100000010000100000001000010000000000000000000000
0000000001000000000100001010001010010101011001010100000100001000000010
0101010001000000000000000000000000100000000001000010100111110101000000
1001010000010000100000001000111000010000000000000000000000001000000000
0100000000001010001110000100001000000000001000000010000100011111000000
0011100000000001000000000001000000000111110001010010000101010000000010
0000001000111000010000000000000000000000010000000000000000000000101001
0101010011010010000000001000000010010101000100000000000000000000001000
0000000001000000000010100011100000110011010000000010000000100001000000
0000010000000000010000100000000000000000000000000000010000000000000000
0000000100000100000000000000000100000000000000010000000000000000000000
0000000000000000000000000000000000100010000000000000000010000000000000
0001000000000000000000000000000000000000000000000000000000000000000000
0000000000000000000000000000000000000000000000000000000000000000000000
0000000000000000000000000000000000000000000000000000000000000000000000
0000000000000000000000000000000000000000000000000000000000000000000000
0000000000000000000000000000000000000000000000000000000000000000000000
0000000000000000000000000000000000000000000001000001000011100111110000
1001111100011001111100111000111000000000000000001000000000100000111000
1010001100010001000001000110010000001000000001010001010001000000000000
0001000000000001000100010100010001000000010000100010100111100100000000
1001000101000100000000000000100001111100001000001001000100010000011000
0110010010000001011110000100001110001111000100000100010000000000000001
0001000100010001000010000000010111110000010100010010000100010000010000
0000000000100001111100001000010000101000010001000001000100001001000101
0001001000010001000010000000000000000100000000000100000000000100001110
0111110011100000100011100011100010000011100011000001000001000000100000
0000100000010000000000000000000000000000000000000000000000000000000000
0000000000000100000000000000000000000000000000000000000000000000000000
0000000000000000000000000000000000000010000000000000000000000000000000
0000000000000000000000000000000000000000000000000000000000000000000000
0000000000000000000000000000000000000000000000000000000000000000000000
0000000000000000000000000000000000000000000000000000000000000000000000
0000000000000000000000000000000000000000000000000000000000000000000000
0000000000000000000000000000000000000000000000000000000000000000000000
0000000000000000000000000000000011100001000111100011100111100111110111
1100111001000100111000000101000101000001000101000100111001000100101001
0001010001010001010000010000010001010001000100000001010010010000011011
0100010100010101110100010100010100000100010100000100000100000100010001
0000000101010001000001010101100101000101010101000101111001000001000101
1110011110010000011111000100000001011000010000010101010101010001010111
0111110100010100000100010100000100000100110100010001000000010101000100
0001000101001101000101000001000101000101000101000101000001000001000101
0001000100010001010010010000010001010001010001001110010001011110001110
0111100111110100000011110100010011100011100100010111110100010100010011
1000000000000000000000000000000000000000000000000000000000000000000000
0000000000000000000000000000000000000000000000000000000000000000000000
0000000000000000000000000000000000000000000000000000000000000000000000
0000000000000000000000000000000000000000000000000000000000000000000000
0000000000000000000000000000000000000000000000000000000000000000000000
0000000000000000000000000000000000000000000000000000000000000000000000
0000000000000000000000000000000000111000000000111000000000000000000000
0000000000000000000000000000000000000000000000000000000000001000010000
0000100000000000000111100011100111100011100111110100010100010100010100
0101000101111100100001000000001000010000000001000101000101000101000100
0100010001010001010001010001010001000001001000001000000010001010000000
0100010100010100010100000001000100010100010100010010100010100000100010
0000100000001001000100000001111001000101111000111000010001000100101001
0101000100000100000100001000000100000010000000000000010000010101010100
0000010001000100010010100101010010100001000010000010000001000000100000
0000000001000001001001001001000100010001000100010001010101000100010001
0000001000000010000010000000000000010000001101010001001110000100001110
0001000010100100010001000111110010000000100000100000000000000000000000
0000000000000000000000000000000000000000000000000000000000100000000100
0010000000000000000000000000000000000000000000000000000000000000000000
0000000000000011100000010011100000000111110000000000000000000000000000
0000000000000000000000000000000000000000000000000000000000000000000000
0000000000000000000000000000000000000000000000000000000000000000000000
0000000000000000000000000000000000000000000000000000000000000000000000
0000000000000000000000000000000000000000000000000000000000000000000000
0000000000000000000000000000000000000000000000000000000000000000000000
0000000010000000000100000000000000010000000000100000000100000001000001
0000100000110000000000000000000000010000000001000000000000000100000000
0100000000010000000000000000001000000100000000000000000000000010001110
0111100011110011110011100001000011110111100011000011000010010001000110
1001111000111000000000000101000101000001000101000100111001000101000100
0100000100001010000100010101010001010001000000001111010001010000010001
0111110001000100010100010001000001000011000001000101010100010100010000
0001000101000101000001000101000000010001000101000100010000010000101000
0100010101010001010001000000001111011110001111001111001110000100001111
0100010011100001000010010011100101010100010011100000000000000000000000
0000000000000000000000000100000000000000010000000000000000000000000000
0000000000000000000000000000000000000000000000001110000000000000001000
0000000000000000000000000000000000000000000000000000000000000000000000
0000000000000000000000000000000000000000000000000000000000000000000000
0000000000000000000000000000000000000000000000000000000000000000000000
0000000000000000000000000000000000000000000000000000000000000000000000
0000000000001000000000100000000000000000000000000000000000000000000000
0000000000000000000000000000000000000100000100000100000000000000000000
0000000000000000000001000000000000000000000000000000000000000001000001
0000010000100000000000000000000000000000000000010000000000000000000000
0000000000000000000100000100000100010101000000011110001111001011001111
0011100100010100010100010100010100010111110010000001000000100000100000
0001000101000100110001000000010001000101000101000100101001000100001001
0000000100000001000000000000010001010001001000001110000100010001001010
0101010001000100010001000010000001000000100000000000000100010100010010
0000000100010001000100101001010100101001000100100000010000010000010000
0000000000011110001111001000011110000010001111000100001010010001001111
0111110001000001000001000000000000000100000000010000000000000000000000
0000000000000000000000000100000000010000010000010000000000000001000000
0001000000000000000000000000000000000000000000001110000000000010000100
0010000000000000000000000000000000000000000000000000000000000000000000
0000000000000000000000000000000000000000000000000000000000000000000000
0000000000000000000000000000000000001010000000000000000000001010000000
0000000000000000000000000000000000000000000000000000000000000001000000
0000000000000000010000000000000000000000000000000000000000000000000000
0000000100000000000000000000000000000000000000000000000110000000000000
0000100000000000000001000001000010100110000011100000000011110000110111
1100000100100100000000000000010000000000000000010000010000000001100101
0001000010010100001100000001000010011100011111000000000100000000000000
0111110111110000000000100100000001000101000100000000100111110010000010
1000000000111000000000000000010000010000000000010000111000100001011000
1100000100000100011100001010000000000100000000000000000100000100000000
0010000000010001000101000000110010000111110010010010100000000001000000
0000000000010000010000000001010101000100001001010000000001000000100000
0110001001000100000100001010010101000100011111000000000101001110000000
0011110111110111110100000000000000000001000001000010100000000001000001
0000000000000000000000000000000000000000000000000000000000000000010000
1000001010000000000100000100000000000000000000000000000000000000000000
0000000000000000000000000000000000000000000000000000000000000000000000
0000000000000000000000000000000000000000000000000000000000000000000000
0000000000000000000000000000000000000000000000000000000000000000000000
0000000000000000000000000000000000000000000111000000000000000000000000
0000000000101000000000000000000000000000000000000000000000000000010100
1000001010000000000000000000001010000000000000000010000100000101001010
0000000000000000000010100010000001000000000000000110000001000100010000
0000010000010000101000101000111000000000000000000000100000000000100000
0000000110000000010001000000000100001000001010010100011111000000000000
0000000010000011110001000011100000010111110010100000000000000000000000
0000000001111101111111111100000000000001000000001001010100011000001000
0100000000000000000000000000000000011111000000000000000000000101001110
0001000101110110000001000001000000000000000000000000000000000011100000
0000000000000000011100000100100001010000000000100000010000000000000000
0000000000000000000000000000000000000000000101011110000000001110011111
0111110001000000000000000000000000000000000000000000000000000000000001
0100000000000000000000000000000000000000000000000000000000000000000000
0000000000000000000000000101000000000000000000000000000000000000000000
0000000000000000000000000000000000000000000000000000000000000000000000
0000000000000000000000000000000000000000000000000000000000000000000000
0000000000000000000000000000000000000000000000000000000000000000000000
0000000000000000000000000000000000000001000000000000000000000000000111
1100000000000000000000000000000000000000010000000000000000111000001000
0000000000000000001110000000000000000000000000000110000000010001000100
0011110010100100010001100000000000000000000100010000000000000000000001
0000100101000100101000010001000000000001011100101000010100000000000001
1101000000000000000100001111001000001110011111000100001110000000011001
0001100010100111110000000110110000000000000000000101000111000010100001
0000000001000100000001100100000001010000000100111001110100000000000000
0100010100001000001110011111000000001110000000011001000000001010000001
0000000110110000000000000001000101000010000100010001000001000000010000
0001011100000000010100000000000001101100000000000000010000111101111100
0000000100000100011110000000010001000000000000000000000000010001000000
0000000001000001000000000000000000000001000000000000000011100000000000
0000000000000000111000000000000000010000000000000000000000000000010000
0000000000000000000000000000000000000000000000000000000000000000000000
0000000000000000000000000000000000000000000000000000000000000000000000
0000000000000000000000000000000000000000000000000000000000000000000000
0000000000000000000000000000000000000000000000001100001100000000000000
0000000000000000000001000001000000000010000010000110000000000001000000
0000001000001000001000000000110100000000000000110000101000000001100001
1000000100000000001010000100000100000100000100000000011101000000000000
0001000010100000000010000010000010000000000001000001000010000000100000
0000000001110100000000000000010000101001010000100000100000010000000000
0000011111001110001100000000010010011101000100000000001110000100001010
0111000111000110000001000000000001000000000000000000000100100011010010
1000000000000000000000010100000000000000000000000000000000010000000000
0000000000010010000101000100000000000000000000001010000001000110000001
0001000000000000000000000000000000000100100001010000000000000000000000
0001010000001100000100001100010000000001111100000000000000000001110100
0101000000000000000000000000000000000101000010000101001000000000000000
0000000000000000000100000001010000000001000000000000000000000001110001
0000011101000100000000000000000000000000000001000000010100000000001000
0000000000000000000001000111000001001110000000000000000000000000000000
0000000000000000000011000000000000000000000000000000000000000000000010
0000001000010000010100000000010000000000000000100000001000010000000000
1000000010000100000000000100000100001010001010001010001010000000000000
0001000001000010100010100001000001000010100010100000000000000000000000
0000000000010000000000000000000000000000000000000000000000000000000000
0000000100000100000100000100000100000100000111001110011111011111011111
0111110011100011100011100011100010100010100010100010100010100010100011
0001000101000001000001000001000000010000010000010000010001000101000101
0001010001010001010001010100010000010000010000010000010000000100000100
0001000001000100010100010100010100010100010100010101100100000111100111
1001111001111000010000010000010000010001111101111101111101111101111101
1111011100010000010000010000010000010000000100000100000100000100010001
0100010100010100010100010100010101000100010100000100000100000100000001
0000010000010000010001000101000101000101000101000101000101011100111001
1111011111011111011111001110001110001110001110000000000000000000000000
0000000000000000000001000000000000000000000000000000000000000000000000
0000000000000000000000000000000000000000000000001000000000000000000000
0000000000000000000000000000000000000000000000000000000000000000000000
0011000000000000000000000000000000000000000000000000000000000001010010
0000001000010000010100000000000000000000100000001000010000000000001000
0000000000000000001010000100000100001010001010001010000000000000000100
0001000010100010100001000000000000000000000000000000000000000000000000
0000000000000000000000000000000000000000000000000000000000000000111001
0001001110001110001110001110001110000000001111010001010001010001010001
0100010100000011100010010100010100010100010100010100010100010100010100
0101000101000101000101000101000101111001000100100101100101000101000101
0001010001010001001010010011010001010001010001010001001010010001010011
0111010101010100010100010100010100010100010001000101010100010100010100
0101000100010001000101010000100101001101000101000101000101000101000100
1010011001010001010001010001010001000100010001010010001001010001010001
0100010100010100010100010100010100010100010100010100010100010001000111
1001000100111001000100111000111000111000111000111000000001111000111000
1110001110001110000100010000010110000000000000000000000000000000000000
0000000000000000000000000000000000000000000000000000000000000000000000
0000000000000000000000000000000000000000000000000000000000000000000000
0000000000000000000000000000000000000000000000000000000000000000000000
0000000000000000000000000000000000000000000000000000000000000000000000
0000000000000000000000000000000000000000000000000000000000000000000000
0000000000000000000000000000000000000000000000000000000000000000000000
0000000000000000000000000010000000100001000001010000000001000000000000
0000100000001000010000000000100000001000010000000000010000010000101000
1010001010001010000000000000000100000100001010001010000100000100001010
0010100000000000000000000000000000000001000000000000000000000000000000
0000000000000000000000000000000000111000111000111000111000111000111000
1110001111001110001110001110001110001100001100001100001100000001000001
0000010000010000010000010001010100000100010100010100010100010001000001
0000010000010000111100111100111100111100111100111100111101000001111101
1111011111011111000100000100000100000100010001010001010001010001010001
0100010101000100000100000100000100000100000001000001000001000001000011
1100111100111100111100111100111100111000111100111000111000111000111000
1110001110001110001110000000000000000000000000000000000000000000000100
0000000000000000000000000000000000000000000000000000000000000000000000
0000000000000000000000001000000000000000000000000000000000000000000000
0000000000000000000000000000000000000000000000001100000000000000000000
0000000000000000000000000000000000000000000000000000000000000000000000
0000000000000000000000000000000000000000000000000000000000000000000000
0000000000000000000000000000000000000000000000000000000000000000000000
0000000000000001000001010010000000100001000001010000000000000000000010
0000001000010000000000001000000000000000111000101000010000010000101000
1010001010000000000000000100000100001010001010000100010000001010000101
0000000000000000000000000000000000000001000000000000000000000000000000
0000000001000000000000000101111000111000111000111000111000111000000000
1111010001010001010001010001010001011110010001001111010001010001010001
0100010100010100010111110100110100010100010100010100010100010100010100
0101000101000101000101000101000101000101000100000001010101000101000101
0001010001010001010001010001010001010001010001010001010001010001010001
0001000110010100010100010100010100010100010100010100010011100100010011
1000111000111000111000111000000001111000111100111100111100111100111101
1110001111000000000000000000000000000000000000000000000000000000000000
0000000000000000000000010100000000010000000000000000000000000000000000
0000000000000000000000000000000000000000000000111001000000111000000000
0000000000000000000000000000000000000000000000000000000000000000000000
000000000000000000
